<?xml version="1.0" encoding="UTF-8"?>
<svg width="20px" height="20px" viewBox="0 0 20 20" version="1.1" xmlns="http://www.w3.org/2000/svg" xmlns:xlink="http://www.w3.org/1999/xlink">
    <!-- Generator: Sketch 60 (88103) - https://sketch.com -->
    <title>external-link</title>
    <desc>Created with Sketch.</desc>
    <g id="external-link" stroke="none" stroke-width="1" fill="none" fill-rule="evenodd">
        <path d="M16.0020444,10.0099664 L16,15 C16,16.1045695 15.1045695,17 14,17 L5,17 C3.8954305,17 3,16.1045695 3,15 L3,6 C3,4.8954305 3.8954305,4 5,4 L10,4" id="路径" stroke="#000000" stroke-width="1.3" stroke-linecap="round"></path>
        <path d="M16.75,3.25 L16.75,6.375 C16.75,6.72017797 17.029822,7 17.375,7 C17.720178,7 18,6.72017797 18,6.375 L18,2.625 C18,2.27982203 17.720178,2 17.375,2 L13.625,2 C13.279822,2 13,2.27982203 13,2.625 C13,2.97017797 13.279822,3.25 13.625,3.25 L16.75,3.25 Z" id="Shape" fill="#000000" fill-rule="nonzero"></path>
        <path d="M10.1818432,10.7972278 L17.7972278,3.18184316 C18.0675907,2.91148018 18.0675907,2.4731352 17.7972278,2.20277223 C17.5268648,1.93240926 17.0885198,1.93240926 16.8181568,2.20277223 L9.20277223,9.81815684 C8.93240926,10.0885198 8.93240926,10.5268648 9.20277223,10.7972278 C9.4731352,11.0675907 9.91148018,11.0675907 10.1818432,10.7972278 Z" id="Shape" fill="#000000" fill-rule="nonzero"></path>
    </g>
</svg>